/* XPM */
static char * mozicon16_xpm[] = {
"16 16 141 2",
"  	c None",
". 	c #F08245",
"+ 	c #D85F21",
"@ 	c #E46A1B",
"# 	c #F8D0BD",
"$ 	c #CC8A68",
"% 	c #E47B2C",
"& 	c #F5A431",
"* 	c #F7AB23",
"= 	c #D87E12",
"- 	c #CE5F15",
"; 	c #B5BFBB",
"> 	c #8BB3BF",
", 	c #75979A",
"' 	c #7C7957",
") 	c #9D622C",
"! 	c #92D4E7",
"~ 	c #83D2EA",
"{ 	c #75CCE7",
"] 	c #3DABD3",
"^ 	c #1885B3",
"/ 	c #055A87",
"( 	c #044165",
"_ 	c #A6DEEE",
": 	c #B6EBF8",
"< 	c #ACE7F8",
"[ 	c #B9EAF7",
"} 	c #73CAE6",
"| 	c #2B9CC9",
"1 	c #0C72A4",
"2 	c #164C6C",
"3 	c #373E43",
"4 	c #AB6546",
"5 	c #A15E30",
"6 	c #6AC3DB",
"7 	c #AAE6F5",
"8 	c #C3EEF9",
"9 	c #C4EEF9",
"0 	c #B1E6F4",
"a 	c #85C8D4",
"b 	c #B3BB95",
"c 	c #D99354",
"d 	c #D77226",
"e 	c #BC5D1E",
"f 	c #CC9643",
"g 	c #B38115",
"h 	c #3FAFCF",
"i 	c #87DBEF",
"j 	c #A5E3F3",
"k 	c #A6E2F2",
"l 	c #A2D1CF",
"m 	c #EDB674",
"n 	c #F69236",
"o 	c #F69E15",
"p 	c #E3951A",
"q 	c #B36F15",
"r 	c #723D2E",
"s 	c #899498",
"t 	c #1696BE",
"u 	c #43C2E0",
"v 	c #5CC8E4",
"w 	c #6EBACC",
"x 	c #DD985E",
"y 	c #F8AC54",
"z 	c #F6AE35",
"A 	c #C0844F",
"B 	c #4B392B",
"C 	c #182A40",
"D 	c #02294B",
"E 	c #FBCE81",
"F 	c #A2ABA9",
"G 	c #016B9E",
"H 	c #0C97C4",
"I 	c #1DA0C7",
"J 	c #B6794D",
"K 	c #F8B685",
"L 	c #F8B843",
"M 	c #B4866D",
"N 	c #223B4D",
"O 	c #155475",
"P 	c #1E516A",
"Q 	c #4B4D45",
"R 	c #FBCD70",
"S 	c #865946",
"T 	c #005080",
"U 	c #066CA1",
"V 	c #927862",
"W 	c #F49A66",
"X 	c #FBCA5A",
"Y 	c #ECAB79",
"Z 	c #B26510",
"` 	c #D78324",
" .	c #DC7F19",
"..	c #C87813",
"+.	c #674A1A",
"@.	c #FAC166",
"#.	c #D18D41",
"$.	c #7B785F",
"%.	c #C88E54",
"&.	c #F6A242",
"*.	c #FACF6E",
"=.	c #F9CD75",
"-.	c #E3B45F",
";.	c #916E4F",
">.	c #65582B",
",.	c #6B6B33",
"'.	c #375349",
").	c #062F4C",
"!.	c #EA8F4D",
"~.	c #F9C660",
"{.	c #FABF32",
"].	c #F9B33B",
"^.	c #F5A341",
"/.	c #EFAF4C",
"(.	c #A47340",
"_.	c #283A3F",
":.	c #006587",
"<.	c #0997B0",
"[.	c #1586A0",
"}.	c #134764",
"|.	c #A04712",
"1.	c #D77235",
"2.	c #E87E3A",
"3.	c #E58039",
"4.	c #D97C3F",
"5.	c #86441C",
"6.	c #122D41",
"7.	c #00527D",
"8.	c #026B94",
"9.	c #0B7C9B",
"0.	c #0E4866",
"a.	c #021321",
"b.	c #572509",
"c.	c #542309",
"d.	c #2A1206",
"e.	c #041423",
"f.	c #002443",
"g.	c #003054",
"h.	c #01365A",
"i.	c #02283F",
"j.	c #00050A",
"                                ",
"            . + @               ",
"        # $ % & * = -           ",
"            ; > , ' )           ",
"          ! ~ { ] ^ / (         ",
"        _ : < [ } | 1 2 3 4 5   ",
"      6 7 8 9 0 a b c d e f g   ",
"      h i j k l m n o p q r     ",
"    s t u v w x y z A B C D     ",
"  E F G H I J K L M N O P Q     ",
"  R S T U V W X Y Z `  ...+.    ",
"  @.#.$.%.&.*.=.-.;.>.,.'.).    ",
"  !.~.{.].^./.(._.:.<.[.}.      ",
"  |.1.2.3.4.5.6.7.8.9.0.a.      ",
"      b.c.d.e.f.g.h.i.j.        ",
"                                "};
